<svg width="121" height="40" viewBox="0 0 121 40" fill="none" xmlns="http://www.w3.org/2000/svg">
<path d="M120.2 0H0.200012V40H120.2V0Z" fill="#393E46"/>
<path d="M25.516 29.2H21.645V10.671H30.11C33.697 10.671 35.865 12.971 35.865 16.606C35.865 18.283 34.936 22.516 29.955 22.516H25.516V29.2ZM29.103 19.316C31.993 19.316 31.993 17.251 31.993 16.426C31.993 14.62 30.986 13.871 28.586 13.871H25.515V19.316H29.102H29.103Z" fill="white"/>
<path d="M38.548 15.471H42.006V17.845H42.057C42.806 16.451 43.631 15.109 45.825 15.109C46.0591 15.1134 46.2928 15.1307 46.525 15.161V18.826C46.1828 18.7823 45.8378 18.7649 45.493 18.774C42.68 18.774 42.164 20.529 42.164 22.051V29.2H38.548V15.471Z" fill="white"/>
<path d="M54.317 29.562C50.627 29.562 47.298 27.291 47.298 22.336C47.298 17.381 50.627 15.11 54.317 15.11C58.007 15.11 61.336 17.381 61.336 22.336C61.336 27.291 58.007 29.562 54.317 29.562ZM54.317 18.155C51.53 18.155 51.017 20.581 51.017 22.336C51.017 24.091 51.533 26.517 54.317 26.517C57.101 26.517 57.617 24.091 57.617 22.336C57.617 20.581 57.104 18.155 54.317 18.155Z" fill="white"/>
<path d="M68.045 29.201H64.432V18.052H62.445V15.471H64.432V14.361C64.432 11.522 65.98 10.438 68.458 10.438C69.516 10.438 70.006 10.464 70.316 10.49V13.406H69.31C68.071 13.406 68.045 13.793 68.045 14.929V15.471H70.394V18.052H68.045V29.201Z" fill="white"/>
<path d="M76.175 13.842H72.562V10.487H76.175V13.842ZM76.175 15.468V29.197H72.562V15.472L76.175 15.468Z" fill="white"/>
<path d="M83.348 29.2H79.735V10.671H83.348V29.2Z" fill="white"/>
<path d="M98.601 25.175C98.2466 26.4859 97.4542 27.636 96.3556 28.4342C95.2569 29.2323 93.9182 29.6303 92.562 29.562C88.691 29.562 85.723 27.704 85.723 22.052C85.723 20.4 86.291 15.11 92.304 15.11C95.014 15.11 98.756 16.4 98.756 22.671V23.316H89.3361C89.4361 24.348 89.646 26.671 92.562 26.671C93.0589 26.7034 93.5531 26.575 93.9714 26.3049C94.3898 26.0348 94.7101 25.6372 94.885 25.171L98.601 25.175ZM95.0389 20.969C94.8329 18.75 93.413 18.079 92.252 18.079C90.552 18.079 89.645 19.163 89.439 20.969H95.0389Z" fill="white"/>
</svg>
